<?xml version="1.0" encoding="UTF-8" ?>
<!DOCTYPE svg PUBLIC "-//W3C//DTD SVG 1.1//EN" "http://www.w3.org/Graphics/SVG/1.1/DTD/svg11.dtd">
<svg width="120pt" height="164pt" viewBox="0 0 120 164" version="1.1" xmlns="http://www.w3.org/2000/svg">
<path fill="#ffffff" d=" M 0.00 0.00 L 120.00 0.00 L 120.00 164.00 L 0.00 164.00 L 0.00 0.00 Z" />
<path fill="#38220f" d=" M 58.42 1.68 C 63.80 1.19 69.58 0.59 74.61 3.02 C 80.42 4.89 85.23 8.80 90.86 11.08 C 94.90 12.77 98.20 15.71 101.03 18.99 C 104.07 22.66 108.89 24.47 111.31 28.71 C 114.99 33.80 115.11 40.25 116.61 46.12 C 119.27 57.20 118.61 68.65 118.78 79.94 C 119.23 83.88 115.52 86.41 114.66 90.00 C 112.73 94.86 114.19 100.14 113.31 105.17 C 112.24 111.06 112.07 117.20 109.78 122.80 C 104.06 134.92 96.14 146.13 85.83 154.78 C 83.22 156.69 80.16 157.83 77.20 159.07 C 72.63 160.84 68.04 163.05 63.02 162.96 C 59.02 162.91 54.91 163.43 51.00 162.36 C 44.64 160.25 39.53 155.73 34.50 151.50 C 27.26 145.18 22.20 136.94 16.97 129.00 C 12.73 122.51 11.49 114.63 11.17 107.03 C 10.63 97.60 6.76 88.90 3.77 80.08 C 1.57 70.92 1.05 61.40 1.01 52.01 C 0.73 47.59 2.59 43.49 3.47 39.24 C 4.25 35.63 7.56 33.46 9.52 30.52 C 11.43 28.32 11.80 25.39 12.83 22.77 C 14.61 20.20 18.11 19.57 19.96 17.02 C 22.57 13.55 25.87 10.45 30.11 9.13 C 39.40 6.13 48.78 3.35 58.42 1.68 Z" />
<path fill="#ffffff" d=" M 73.08 33.77 C 75.95 32.37 79.13 32.29 82.26 32.42 C 84.23 35.09 86.50 37.52 88.67 40.03 C 88.53 37.90 88.42 35.76 88.33 33.63 C 90.96 36.41 94.92 38.20 96.20 42.04 C 96.75 43.43 97.26 44.85 97.86 46.23 C 97.58 41.59 95.43 37.39 94.54 32.88 C 95.81 34.05 97.27 35.23 97.75 36.97 C 99.97 43.53 101.07 50.51 104.32 56.70 C 106.60 60.15 105.17 64.44 105.37 68.28 C 102.47 69.28 99.47 70.01 96.46 70.61 C 96.55 71.50 96.73 73.27 96.82 74.16 C 99.66 73.53 102.47 72.74 105.32 72.19 C 107.11 74.04 109.06 75.83 110.21 78.18 C 111.05 81.02 110.29 84.07 110.95 86.95 C 111.45 89.75 112.06 92.79 110.98 95.53 C 107.83 102.91 106.73 111.29 101.79 117.80 C 99.61 119.67 96.59 120.39 94.69 122.62 C 92.79 125.54 91.60 128.83 90.21 132.01 C 87.45 130.70 84.76 129.26 81.96 128.03 C 83.21 130.40 84.60 132.69 85.90 135.04 C 80.75 139.21 78.10 146.72 71.07 148.22 C 67.37 149.31 64.31 152.29 60.19 151.66 C 60.64 150.10 61.24 148.58 61.55 146.98 C 60.76 144.35 59.21 142.03 57.95 139.61 C 55.01 141.77 57.95 144.34 58.97 146.67 C 57.53 145.82 56.06 144.99 54.69 144.04 C 53.81 141.57 56.02 139.53 56.44 137.21 C 56.68 135.10 56.54 132.97 56.56 130.85 C 53.46 130.03 49.75 128.56 50.22 124.69 C 54.79 122.24 59.35 119.74 64.13 117.71 C 67.18 116.99 70.36 117.71 73.30 118.64 C 76.87 119.59 78.77 123.08 81.23 125.55 C 82.31 122.87 82.66 120.01 82.73 117.14 C 81.45 117.48 80.18 117.88 78.88 118.12 C 74.20 116.46 69.13 116.40 64.57 114.32 C 64.45 113.38 64.32 112.44 64.19 111.51 C 65.93 111.53 67.67 111.52 69.41 111.50 C 66.91 108.87 64.60 106.02 61.75 103.77 C 57.84 102.35 54.91 106.45 51.18 106.90 C 51.66 105.23 52.27 103.62 52.87 101.99 C 51.72 100.55 50.37 99.23 49.51 97.58 C 48.93 94.84 51.25 92.62 51.46 90.00 C 51.69 85.17 51.42 80.34 51.39 75.51 C 53.08 75.46 54.76 75.37 56.45 75.22 C 56.88 80.22 59.48 86.26 65.05 87.04 C 73.83 88.29 83.09 87.95 91.35 84.44 C 93.25 83.96 92.86 81.71 93.24 80.24 C 93.45 76.96 94.96 74.01 95.80 70.89 C 92.04 69.16 88.20 67.11 83.93 67.40 C 79.41 67.91 74.83 63.60 70.55 66.29 C 66.35 69.52 60.71 69.49 56.37 72.48 C 50.06 74.53 47.59 66.73 42.69 64.71 C 39.30 64.61 35.45 64.19 33.58 60.91 C 33.30 57.07 33.57 53.22 33.34 49.39 C 38.17 45.66 44.53 48.86 49.88 46.76 C 51.72 46.17 53.30 45.01 54.89 43.94 C 51.64 43.34 48.40 42.69 45.21 41.86 C 49.57 41.78 53.82 40.99 57.65 38.81 C 65.19 36.78 71.49 42.86 78.66 43.94 C 78.81 41.18 78.01 38.55 76.67 36.16 C 76.53 38.06 76.47 39.96 76.33 41.85 C 75.29 39.14 74.27 36.42 73.08 33.77 Z" />
<path fill="#ffffff" d=" M 75.00 69.93 C 80.42 69.12 86.00 68.54 91.44 69.52 C 92.78 73.82 93.15 79.43 89.90 82.94 C 82.29 86.32 73.66 85.98 65.53 85.44 C 62.79 85.41 61.33 83.02 59.95 81.04 C 60.74 80.07 61.52 79.10 62.29 78.11 C 60.83 77.20 59.39 76.26 57.96 75.31 C 58.53 71.13 63.45 71.45 66.63 71.01 C 66.57 72.67 66.55 74.34 66.52 76.00 C 68.42 76.82 70.27 77.75 72.08 78.74 C 74.72 77.29 77.44 75.98 79.99 74.39 C 81.49 74.94 82.99 75.46 84.52 75.91 C 84.64 74.46 84.61 73.01 84.53 71.56 C 81.38 70.81 78.16 70.58 75.00 69.93 Z" />
</svg>
